<mxfile host="app.diagrams.net" agent="Mozilla/5.0 (Windows NT 10.0; Win64; x64) AppleWebKit/537.36 (KHTML, like Gecko) Chrome/141.0.0.0 Safari/537.36 Edg/141.0.0.0" version="28.2.5">
  <diagram name="Page-1" id="Df389t3WqSUg2zOV8QNm">
    <mxGraphModel dx="5389" dy="1454" grid="1" gridSize="10" guides="1" tooltips="1" connect="1" arrows="1" fold="1" page="1" pageScale="1" pageWidth="3300" pageHeight="4681" math="0" shadow="0">
      <root>
        <mxCell id="0" />
        <mxCell id="1" parent="0" />
        <mxCell id="vt_OYnWGVLv-kA8L_yOq-1" style="rounded=0;orthogonalLoop=1;jettySize=auto;html=1;entryX=0;entryY=0.5;entryDx=0;entryDy=0;endArrow=none;endFill=0;exitX=0.5;exitY=0.5;exitDx=0;exitDy=0;exitPerimeter=0;strokeWidth=4;" edge="1" parent="1" source="vt_OYnWGVLv-kA8L_yOq-5" target="vt_OYnWGVLv-kA8L_yOq-24">
          <mxGeometry relative="1" as="geometry" />
        </mxCell>
        <mxCell id="vt_OYnWGVLv-kA8L_yOq-2" style="rounded=0;orthogonalLoop=1;jettySize=auto;html=1;exitX=0.5;exitY=0.5;exitDx=0;exitDy=0;exitPerimeter=0;entryX=0;entryY=0.5;entryDx=0;entryDy=0;endArrow=none;endFill=0;strokeWidth=4;" edge="1" parent="1" source="vt_OYnWGVLv-kA8L_yOq-5" target="vt_OYnWGVLv-kA8L_yOq-25">
          <mxGeometry relative="1" as="geometry" />
        </mxCell>
        <mxCell id="vt_OYnWGVLv-kA8L_yOq-3" style="rounded=0;orthogonalLoop=1;jettySize=auto;html=1;exitX=0.5;exitY=0.5;exitDx=0;exitDy=0;exitPerimeter=0;entryX=0;entryY=0.5;entryDx=0;entryDy=0;endArrow=none;endFill=0;strokeWidth=4;" edge="1" parent="1" source="vt_OYnWGVLv-kA8L_yOq-5" target="vt_OYnWGVLv-kA8L_yOq-26">
          <mxGeometry relative="1" as="geometry" />
        </mxCell>
        <mxCell id="vt_OYnWGVLv-kA8L_yOq-4" style="rounded=0;orthogonalLoop=1;jettySize=auto;html=1;exitX=0.5;exitY=0.5;exitDx=0;exitDy=0;exitPerimeter=0;entryX=0.046;entryY=0.294;entryDx=0;entryDy=0;entryPerimeter=0;strokeWidth=4;endArrow=none;endFill=0;" edge="1" parent="1" source="vt_OYnWGVLv-kA8L_yOq-5" target="vt_OYnWGVLv-kA8L_yOq-46">
          <mxGeometry relative="1" as="geometry" />
        </mxCell>
        <mxCell id="vt_OYnWGVLv-kA8L_yOq-5" value="&lt;font style=&quot;font-size: 36px;&quot;&gt;Khách hàng&lt;/font&gt;" style="shape=umlActor;verticalLabelPosition=bottom;verticalAlign=top;html=1;outlineConnect=0;" vertex="1" parent="1">
          <mxGeometry x="50" y="400" width="130" height="190" as="geometry" />
        </mxCell>
        <mxCell id="vt_OYnWGVLv-kA8L_yOq-6" value="" style="whiteSpace=wrap;html=1;aspect=fixed;gradientColor=none;fillColor=none;strokeWidth=3;" vertex="1" parent="1">
          <mxGeometry x="250" y="40" width="1220" height="1220" as="geometry" />
        </mxCell>
        <mxCell id="vt_OYnWGVLv-kA8L_yOq-7" value="&lt;font style=&quot;font-size: 48px;&quot;&gt;Đặt sân bóng đá&lt;/font&gt;&lt;div&gt;&lt;br&gt;&lt;/div&gt;" style="text;html=1;align=center;verticalAlign=middle;whiteSpace=wrap;rounded=0;" vertex="1" parent="1">
          <mxGeometry x="670" y="90" width="420" height="20" as="geometry" />
        </mxCell>
        <mxCell id="vt_OYnWGVLv-kA8L_yOq-8" style="rounded=0;orthogonalLoop=1;jettySize=auto;html=1;exitX=0.5;exitY=0.5;exitDx=0;exitDy=0;exitPerimeter=0;entryX=0;entryY=0.5;entryDx=0;entryDy=0;endArrow=none;endFill=0;strokeWidth=4;" edge="1" parent="1" source="vt_OYnWGVLv-kA8L_yOq-16" target="vt_OYnWGVLv-kA8L_yOq-38">
          <mxGeometry relative="1" as="geometry" />
        </mxCell>
        <mxCell id="vt_OYnWGVLv-kA8L_yOq-9" style="rounded=0;orthogonalLoop=1;jettySize=auto;html=1;exitX=0.5;exitY=0.5;exitDx=0;exitDy=0;exitPerimeter=0;entryX=0;entryY=0.5;entryDx=0;entryDy=0;endArrow=none;endFill=0;strokeWidth=4;" edge="1" parent="1" source="vt_OYnWGVLv-kA8L_yOq-16" target="vt_OYnWGVLv-kA8L_yOq-41">
          <mxGeometry relative="1" as="geometry" />
        </mxCell>
        <mxCell id="vt_OYnWGVLv-kA8L_yOq-10" style="rounded=0;orthogonalLoop=1;jettySize=auto;html=1;exitX=0.5;exitY=0.5;exitDx=0;exitDy=0;exitPerimeter=0;entryX=0;entryY=0.5;entryDx=0;entryDy=0;endArrow=none;endFill=0;strokeWidth=4;" edge="1" parent="1" source="vt_OYnWGVLv-kA8L_yOq-16" target="vt_OYnWGVLv-kA8L_yOq-19">
          <mxGeometry relative="1" as="geometry" />
        </mxCell>
        <mxCell id="vt_OYnWGVLv-kA8L_yOq-11" style="rounded=0;orthogonalLoop=1;jettySize=auto;html=1;exitX=0.5;exitY=0.5;exitDx=0;exitDy=0;exitPerimeter=0;entryX=0;entryY=0.5;entryDx=0;entryDy=0;endArrow=none;endFill=0;strokeWidth=4;" edge="1" parent="1" source="vt_OYnWGVLv-kA8L_yOq-16" target="vt_OYnWGVLv-kA8L_yOq-42">
          <mxGeometry relative="1" as="geometry" />
        </mxCell>
        <mxCell id="vt_OYnWGVLv-kA8L_yOq-12" style="rounded=0;orthogonalLoop=1;jettySize=auto;html=1;exitX=0.5;exitY=0.5;exitDx=0;exitDy=0;exitPerimeter=0;entryX=0;entryY=0.5;entryDx=0;entryDy=0;endArrow=none;endFill=0;strokeWidth=4;" edge="1" parent="1" source="vt_OYnWGVLv-kA8L_yOq-16" target="vt_OYnWGVLv-kA8L_yOq-45">
          <mxGeometry relative="1" as="geometry" />
        </mxCell>
        <mxCell id="vt_OYnWGVLv-kA8L_yOq-13" style="rounded=0;orthogonalLoop=1;jettySize=auto;html=1;exitX=0.5;exitY=0.5;exitDx=0;exitDy=0;exitPerimeter=0;entryX=0;entryY=0.5;entryDx=0;entryDy=0;strokeWidth=4;endArrow=none;endFill=0;" edge="1" parent="1" source="vt_OYnWGVLv-kA8L_yOq-16" target="vt_OYnWGVLv-kA8L_yOq-51">
          <mxGeometry relative="1" as="geometry" />
        </mxCell>
        <mxCell id="vt_OYnWGVLv-kA8L_yOq-14" style="rounded=0;orthogonalLoop=1;jettySize=auto;html=1;exitX=0.5;exitY=0.5;exitDx=0;exitDy=0;exitPerimeter=0;entryX=0;entryY=1;entryDx=0;entryDy=0;strokeWidth=4;endArrow=none;endFill=0;" edge="1" parent="1" source="vt_OYnWGVLv-kA8L_yOq-16" target="vt_OYnWGVLv-kA8L_yOq-26">
          <mxGeometry relative="1" as="geometry" />
        </mxCell>
        <mxCell id="vt_OYnWGVLv-kA8L_yOq-15" style="rounded=0;orthogonalLoop=1;jettySize=auto;html=1;exitX=0.5;exitY=0.5;exitDx=0;exitDy=0;exitPerimeter=0;entryX=0;entryY=1;entryDx=0;entryDy=0;endArrow=none;endFill=0;strokeWidth=4;" edge="1" parent="1" source="vt_OYnWGVLv-kA8L_yOq-16" target="vt_OYnWGVLv-kA8L_yOq-25">
          <mxGeometry relative="1" as="geometry" />
        </mxCell>
        <mxCell id="vt_OYnWGVLv-kA8L_yOq-16" value="&lt;font style=&quot;font-size: 48px;&quot;&gt;Thành viên&lt;/font&gt;" style="shape=umlActor;verticalLabelPosition=bottom;verticalAlign=top;html=1;outlineConnect=0;" vertex="1" parent="1">
          <mxGeometry x="40" y="830" width="150" height="190" as="geometry" />
        </mxCell>
        <mxCell id="vt_OYnWGVLv-kA8L_yOq-17" style="rounded=0;orthogonalLoop=1;jettySize=auto;html=1;exitX=1;exitY=1;exitDx=0;exitDy=0;entryX=0;entryY=0;entryDx=0;entryDy=0;dashed=1;dashPattern=1 4;strokeWidth=4;" edge="1" parent="1" source="vt_OYnWGVLv-kA8L_yOq-19" target="vt_OYnWGVLv-kA8L_yOq-46">
          <mxGeometry relative="1" as="geometry" />
        </mxCell>
        <mxCell id="vt_OYnWGVLv-kA8L_yOq-18" value="&lt;font style=&quot;font-size: 18px;&quot;&gt;&amp;lt;&amp;lt;Include&amp;gt;&amp;gt;&lt;/font&gt;" style="edgeLabel;html=1;align=center;verticalAlign=middle;resizable=0;points=[];" vertex="1" connectable="0" parent="vt_OYnWGVLv-kA8L_yOq-17">
          <mxGeometry x="0.4319" y="3" relative="1" as="geometry">
            <mxPoint as="offset" />
          </mxGeometry>
        </mxCell>
        <mxCell id="vt_OYnWGVLv-kA8L_yOq-19" value="&lt;font style=&quot;font-size: 24px;&quot;&gt;Quản lí tài khoản&lt;/font&gt;" style="ellipse;whiteSpace=wrap;html=1;shadow=0;" vertex="1" parent="1">
          <mxGeometry x="330" y="200" width="160" height="120" as="geometry" />
        </mxCell>
        <mxCell id="vt_OYnWGVLv-kA8L_yOq-20" style="rounded=0;orthogonalLoop=1;jettySize=auto;html=1;exitX=1;exitY=0.5;exitDx=0;exitDy=0;entryX=0;entryY=0.5;entryDx=0;entryDy=0;dashed=1;dashPattern=1 2;startSize=20;sourcePerimeterSpacing=0;strokeWidth=3;" edge="1" parent="1" source="vt_OYnWGVLv-kA8L_yOq-24" target="vt_OYnWGVLv-kA8L_yOq-33">
          <mxGeometry relative="1" as="geometry" />
        </mxCell>
        <mxCell id="vt_OYnWGVLv-kA8L_yOq-21" value="&lt;font style=&quot;font-size: 18px;&quot;&gt;&amp;lt;&amp;lt;Include&amp;gt;&amp;gt;&lt;/font&gt;" style="edgeLabel;html=1;align=center;verticalAlign=middle;resizable=0;points=[];" vertex="1" connectable="0" parent="vt_OYnWGVLv-kA8L_yOq-20">
          <mxGeometry x="0.0266" relative="1" as="geometry">
            <mxPoint x="-13" y="1" as="offset" />
          </mxGeometry>
        </mxCell>
        <mxCell id="vt_OYnWGVLv-kA8L_yOq-22" style="rounded=0;orthogonalLoop=1;jettySize=auto;html=1;exitX=0.5;exitY=1;exitDx=0;exitDy=0;entryX=0.5;entryY=0;entryDx=0;entryDy=0;strokeWidth=4;dashed=1;dashPattern=1 4;" edge="1" parent="1" source="vt_OYnWGVLv-kA8L_yOq-24" target="vt_OYnWGVLv-kA8L_yOq-46">
          <mxGeometry relative="1" as="geometry" />
        </mxCell>
        <mxCell id="vt_OYnWGVLv-kA8L_yOq-23" value="&lt;font style=&quot;font-size: 18px;&quot;&gt;&amp;lt;&amp;lt;Include&amp;gt;&amp;gt;&lt;/font&gt;" style="edgeLabel;html=1;align=center;verticalAlign=middle;resizable=0;points=[];" vertex="1" connectable="0" parent="vt_OYnWGVLv-kA8L_yOq-22">
          <mxGeometry x="-0.0063" y="-1" relative="1" as="geometry">
            <mxPoint as="offset" />
          </mxGeometry>
        </mxCell>
        <mxCell id="vt_OYnWGVLv-kA8L_yOq-24" value="&lt;font style=&quot;font-size: 24px;&quot;&gt;Đăng kí&lt;/font&gt;" style="ellipse;whiteSpace=wrap;html=1;" vertex="1" parent="1">
          <mxGeometry x="700" y="340" width="160" height="80" as="geometry" />
        </mxCell>
        <mxCell id="vt_OYnWGVLv-kA8L_yOq-25" value="&lt;font style=&quot;font-size: 24px;&quot;&gt;Xem thông tin sân&lt;/font&gt;" style="ellipse;whiteSpace=wrap;html=1;align=center;" vertex="1" parent="1">
          <mxGeometry x="700" y="175" width="190" height="90" as="geometry" />
        </mxCell>
        <mxCell id="vt_OYnWGVLv-kA8L_yOq-26" value="&lt;font style=&quot;font-size: 24px;&quot;&gt;Tìm kiến sân&lt;/font&gt;" style="ellipse;whiteSpace=wrap;html=1;align=center;" vertex="1" parent="1">
          <mxGeometry x="530" y="510" width="160" height="60" as="geometry" />
        </mxCell>
        <mxCell id="vt_OYnWGVLv-kA8L_yOq-27" style="rounded=0;orthogonalLoop=1;jettySize=auto;html=1;exitX=0.5;exitY=1;exitDx=0;exitDy=0;entryX=0.254;entryY=0.062;entryDx=0;entryDy=0;dashed=1;dashPattern=1 4;strokeWidth=3;endSize=8;entryPerimeter=0;" edge="1" parent="1" source="vt_OYnWGVLv-kA8L_yOq-33" target="vt_OYnWGVLv-kA8L_yOq-35">
          <mxGeometry relative="1" as="geometry">
            <mxPoint x="1035" y="400" as="sourcePoint" />
            <mxPoint x="1050.0000000000011" y="460" as="targetPoint" />
          </mxGeometry>
        </mxCell>
        <mxCell id="vt_OYnWGVLv-kA8L_yOq-28" value="&lt;font style=&quot;font-size: 18px;&quot;&gt;&amp;lt;&amp;lt;Extend&amp;gt;&amp;gt;&lt;/font&gt;" style="edgeLabel;html=1;align=center;verticalAlign=middle;resizable=0;points=[];" vertex="1" connectable="0" parent="vt_OYnWGVLv-kA8L_yOq-27">
          <mxGeometry x="0.0064" y="-1" relative="1" as="geometry">
            <mxPoint as="offset" />
          </mxGeometry>
        </mxCell>
        <mxCell id="vt_OYnWGVLv-kA8L_yOq-29" style="rounded=0;orthogonalLoop=1;jettySize=auto;html=1;exitX=0.5;exitY=0;exitDx=0;exitDy=0;entryX=0;entryY=1;entryDx=0;entryDy=0;dashed=1;dashPattern=1 4;strokeWidth=3;" edge="1" parent="1" source="vt_OYnWGVLv-kA8L_yOq-33" target="vt_OYnWGVLv-kA8L_yOq-34">
          <mxGeometry relative="1" as="geometry" />
        </mxCell>
        <mxCell id="vt_OYnWGVLv-kA8L_yOq-30" value="&lt;font style=&quot;font-size: 18px;&quot;&gt;&amp;lt;&amp;lt;Extend&amp;gt;&amp;gt;&lt;/font&gt;" style="edgeLabel;html=1;align=center;verticalAlign=middle;resizable=0;points=[];" vertex="1" connectable="0" parent="vt_OYnWGVLv-kA8L_yOq-29">
          <mxGeometry x="0.0213" y="-1" relative="1" as="geometry">
            <mxPoint x="-5" as="offset" />
          </mxGeometry>
        </mxCell>
        <mxCell id="vt_OYnWGVLv-kA8L_yOq-31" style="rounded=0;orthogonalLoop=1;jettySize=auto;html=1;exitX=0;exitY=1;exitDx=0;exitDy=0;entryX=1;entryY=0;entryDx=0;entryDy=0;dashed=1;dashPattern=1 4;strokeWidth=4;" edge="1" parent="1" source="vt_OYnWGVLv-kA8L_yOq-33" target="vt_OYnWGVLv-kA8L_yOq-46">
          <mxGeometry relative="1" as="geometry" />
        </mxCell>
        <mxCell id="vt_OYnWGVLv-kA8L_yOq-32" value="&lt;font style=&quot;font-size: 18px;&quot;&gt;&amp;lt;&amp;lt;Include&amp;gt;&amp;gt;&lt;/font&gt;" style="edgeLabel;html=1;align=center;verticalAlign=middle;resizable=0;points=[];" vertex="1" connectable="0" parent="vt_OYnWGVLv-kA8L_yOq-31">
          <mxGeometry x="0.0065" y="-1" relative="1" as="geometry">
            <mxPoint as="offset" />
          </mxGeometry>
        </mxCell>
        <mxCell id="vt_OYnWGVLv-kA8L_yOq-33" value="&lt;font style=&quot;font-size: 24px;&quot;&gt;Xác thực&lt;/font&gt;" style="ellipse;whiteSpace=wrap;html=1;align=center;" vertex="1" parent="1">
          <mxGeometry x="1170" y="330" width="150" height="40" as="geometry" />
        </mxCell>
        <mxCell id="vt_OYnWGVLv-kA8L_yOq-34" value="&lt;font style=&quot;font-size: 24px;&quot;&gt;Xác thực bằng email&lt;/font&gt;" style="ellipse;whiteSpace=wrap;html=1;" vertex="1" parent="1">
          <mxGeometry x="1220" y="160" width="235" height="80" as="geometry" />
        </mxCell>
        <mxCell id="vt_OYnWGVLv-kA8L_yOq-35" value="&lt;font style=&quot;font-size: 24px;&quot;&gt;Xác thực bằng sdt&lt;/font&gt;" style="ellipse;whiteSpace=wrap;html=1;" vertex="1" parent="1">
          <mxGeometry x="1250" y="465" width="220" height="60" as="geometry" />
        </mxCell>
        <mxCell id="vt_OYnWGVLv-kA8L_yOq-36" style="rounded=0;orthogonalLoop=1;jettySize=auto;html=1;exitX=1;exitY=0.5;exitDx=0;exitDy=0;entryX=0;entryY=0.5;entryDx=0;entryDy=0;dashed=1;dashPattern=1 4;strokeWidth=3;" edge="1" parent="1" source="vt_OYnWGVLv-kA8L_yOq-38" target="vt_OYnWGVLv-kA8L_yOq-46">
          <mxGeometry relative="1" as="geometry" />
        </mxCell>
        <mxCell id="vt_OYnWGVLv-kA8L_yOq-37" value="&lt;font style=&quot;font-size: 18px;&quot;&gt;&amp;lt;&amp;lt;Include&amp;gt;&amp;gt;&lt;/font&gt;" style="edgeLabel;html=1;align=center;verticalAlign=middle;resizable=0;points=[];" vertex="1" connectable="0" parent="vt_OYnWGVLv-kA8L_yOq-36">
          <mxGeometry x="-0.0808" y="2" relative="1" as="geometry">
            <mxPoint as="offset" />
          </mxGeometry>
        </mxCell>
        <mxCell id="vt_OYnWGVLv-kA8L_yOq-38" value="&lt;span style=&quot;font-size: 24px;&quot;&gt;Đánh giá sân&lt;/span&gt;" style="ellipse;whiteSpace=wrap;html=1;" vertex="1" parent="1">
          <mxGeometry x="480" y="660" width="160" height="70" as="geometry" />
        </mxCell>
        <mxCell id="vt_OYnWGVLv-kA8L_yOq-39" style="rounded=0;orthogonalLoop=1;jettySize=auto;html=1;exitX=1;exitY=0.5;exitDx=0;exitDy=0;entryX=0;entryY=1;entryDx=0;entryDy=0;strokeWidth=3;dashed=1;dashPattern=1 4;" edge="1" parent="1" source="vt_OYnWGVLv-kA8L_yOq-41" target="vt_OYnWGVLv-kA8L_yOq-46">
          <mxGeometry relative="1" as="geometry" />
        </mxCell>
        <mxCell id="vt_OYnWGVLv-kA8L_yOq-40" value="&lt;font style=&quot;font-size: 18px;&quot;&gt;&amp;lt;&amp;lt;Include&amp;gt;&amp;gt;&lt;/font&gt;" style="edgeLabel;html=1;align=center;verticalAlign=middle;resizable=0;points=[];" vertex="1" connectable="0" parent="vt_OYnWGVLv-kA8L_yOq-39">
          <mxGeometry x="0.0241" relative="1" as="geometry">
            <mxPoint x="1" as="offset" />
          </mxGeometry>
        </mxCell>
        <mxCell id="vt_OYnWGVLv-kA8L_yOq-41" value="&lt;font style=&quot;font-size: 24px;&quot;&gt;Hủy lịch đặt sân&lt;/font&gt;" style="ellipse;whiteSpace=wrap;html=1;" vertex="1" parent="1">
          <mxGeometry x="450" y="760" width="200" height="70" as="geometry" />
        </mxCell>
        <mxCell id="vt_OYnWGVLv-kA8L_yOq-42" value="&lt;font style=&quot;font-size: 24px;&quot;&gt;Thanh toán bằng ví điện tử&lt;/font&gt;" style="ellipse;whiteSpace=wrap;html=1;" vertex="1" parent="1">
          <mxGeometry x="560" y="860" width="230" height="110" as="geometry" />
        </mxCell>
        <mxCell id="vt_OYnWGVLv-kA8L_yOq-43" style="rounded=0;orthogonalLoop=1;jettySize=auto;html=1;exitX=0.5;exitY=0;exitDx=0;exitDy=0;entryX=0.756;entryY=0.922;entryDx=0;entryDy=0;endArrow=classic;endFill=1;dashed=1;dashPattern=1 4;strokeWidth=4;entryPerimeter=0;" edge="1" parent="1">
          <mxGeometry relative="1" as="geometry">
            <mxPoint x="1070" y="1170" as="sourcePoint" />
            <mxPoint x="930.8399999999999" y="724.5400000000002" as="targetPoint" />
          </mxGeometry>
        </mxCell>
        <mxCell id="vt_OYnWGVLv-kA8L_yOq-44" value="&lt;font style=&quot;font-size: 18px;&quot;&gt;&amp;lt;&amp;lt;Include&amp;gt;&amp;gt;&lt;/font&gt;" style="edgeLabel;html=1;align=center;verticalAlign=middle;resizable=0;points=[];" vertex="1" connectable="0" parent="vt_OYnWGVLv-kA8L_yOq-43">
          <mxGeometry x="0.0053" relative="1" as="geometry">
            <mxPoint as="offset" />
          </mxGeometry>
        </mxCell>
        <mxCell id="vt_OYnWGVLv-kA8L_yOq-45" value="&lt;font style=&quot;font-size: 24px;&quot;&gt;Xem lịch sử đặt sân&lt;/font&gt;" style="ellipse;whiteSpace=wrap;html=1;" vertex="1" parent="1">
          <mxGeometry x="970" y="1170" width="250" height="70" as="geometry" />
        </mxCell>
        <mxCell id="vt_OYnWGVLv-kA8L_yOq-46" value="&lt;font style=&quot;font-size: 24px;&quot;&gt;Đăng nhập&lt;/font&gt;" style="ellipse;whiteSpace=wrap;html=1;" vertex="1" parent="1">
          <mxGeometry x="850" y="660" width="140" height="70" as="geometry" />
        </mxCell>
        <mxCell id="vt_OYnWGVLv-kA8L_yOq-47" style="rounded=0;orthogonalLoop=1;jettySize=auto;html=1;exitX=0.5;exitY=0;exitDx=0;exitDy=0;entryX=0.5;entryY=1;entryDx=0;entryDy=0;dashed=1;dashPattern=1 4;strokeWidth=3;" edge="1" parent="1">
          <mxGeometry relative="1" as="geometry">
            <mxPoint x="875" y="1030" as="sourcePoint" />
            <mxPoint x="905" y="730" as="targetPoint" />
          </mxGeometry>
        </mxCell>
        <mxCell id="vt_OYnWGVLv-kA8L_yOq-48" value="&lt;font style=&quot;font-size: 18px;&quot;&gt;&amp;lt;&amp;lt;Include&amp;gt;&amp;gt;&lt;/font&gt;" style="edgeLabel;html=1;align=center;verticalAlign=middle;resizable=0;points=[];" vertex="1" connectable="0" parent="vt_OYnWGVLv-kA8L_yOq-47">
          <mxGeometry x="-0.1636" y="-6" relative="1" as="geometry">
            <mxPoint x="-4" y="4" as="offset" />
          </mxGeometry>
        </mxCell>
        <mxCell id="vt_OYnWGVLv-kA8L_yOq-49" style="rounded=0;orthogonalLoop=1;jettySize=auto;html=1;exitX=0.19;exitY=0.099;exitDx=0;exitDy=0;entryX=1;entryY=1;entryDx=0;entryDy=0;dashed=1;dashPattern=1 4;strokeWidth=4;exitPerimeter=0;" edge="1" parent="1" source="vt_OYnWGVLv-kA8L_yOq-51" target="vt_OYnWGVLv-kA8L_yOq-42">
          <mxGeometry relative="1" as="geometry" />
        </mxCell>
        <mxCell id="vt_OYnWGVLv-kA8L_yOq-50" value="&lt;font style=&quot;font-size: 18px;&quot;&gt;&amp;lt;&amp;lt;Include&amp;gt;&amp;gt;&lt;/font&gt;" style="edgeLabel;html=1;align=center;verticalAlign=middle;resizable=0;points=[];" vertex="1" connectable="0" parent="vt_OYnWGVLv-kA8L_yOq-49">
          <mxGeometry x="0.0067" y="-3" relative="1" as="geometry">
            <mxPoint as="offset" />
          </mxGeometry>
        </mxCell>
        <mxCell id="vt_OYnWGVLv-kA8L_yOq-51" value="&lt;font style=&quot;font-size: 24px;&quot;&gt;Đặt sân&lt;/font&gt;" style="ellipse;whiteSpace=wrap;html=1;" vertex="1" parent="1">
          <mxGeometry x="820" y="1030" width="140" height="70" as="geometry" />
        </mxCell>
        <mxCell id="vt_OYnWGVLv-kA8L_yOq-52" style="rounded=0;orthogonalLoop=1;jettySize=auto;html=1;exitX=0;exitY=1;exitDx=0;exitDy=0;entryX=0.987;entryY=0.31;entryDx=0;entryDy=0;strokeWidth=3;dashed=1;dashPattern=1 4;entryPerimeter=0;" edge="1" parent="1" source="vt_OYnWGVLv-kA8L_yOq-54" target="vt_OYnWGVLv-kA8L_yOq-46">
          <mxGeometry relative="1" as="geometry" />
        </mxCell>
        <mxCell id="vt_OYnWGVLv-kA8L_yOq-53" value="&lt;font style=&quot;font-size: 18px;&quot;&gt;&amp;lt;&amp;lt;Include&amp;gt;&amp;gt;&lt;/font&gt;" style="edgeLabel;html=1;align=center;verticalAlign=middle;resizable=0;points=[];" vertex="1" connectable="0" parent="vt_OYnWGVLv-kA8L_yOq-52">
          <mxGeometry x="0.0078" y="-2" relative="1" as="geometry">
            <mxPoint as="offset" />
          </mxGeometry>
        </mxCell>
        <mxCell id="vt_OYnWGVLv-kA8L_yOq-54" value="&lt;font style=&quot;font-size: 24px;&quot;&gt;Quản lí sân&lt;/font&gt;" style="ellipse;whiteSpace=wrap;html=1;" vertex="1" parent="1">
          <mxGeometry x="1280" y="580" width="140" height="70" as="geometry" />
        </mxCell>
        <mxCell id="vt_OYnWGVLv-kA8L_yOq-55" style="rounded=0;orthogonalLoop=1;jettySize=auto;html=1;exitX=0;exitY=0.5;exitDx=0;exitDy=0;entryX=1;entryY=0.5;entryDx=0;entryDy=0;dashed=1;dashPattern=1 4;strokeWidth=3;" edge="1" parent="1" source="vt_OYnWGVLv-kA8L_yOq-57" target="vt_OYnWGVLv-kA8L_yOq-46">
          <mxGeometry relative="1" as="geometry" />
        </mxCell>
        <mxCell id="vt_OYnWGVLv-kA8L_yOq-56" value="&lt;font style=&quot;font-size: 18px;&quot;&gt;&amp;lt;&amp;lt;Include&amp;gt;&amp;gt;&lt;/font&gt;" style="edgeLabel;html=1;align=center;verticalAlign=middle;resizable=0;points=[];" vertex="1" connectable="0" parent="vt_OYnWGVLv-kA8L_yOq-55">
          <mxGeometry x="0.1455" y="-2" relative="1" as="geometry">
            <mxPoint as="offset" />
          </mxGeometry>
        </mxCell>
        <mxCell id="vt_OYnWGVLv-kA8L_yOq-57" value="&lt;span style=&quot;font-size: 24px;&quot;&gt;Quản lí lịch đăt&lt;/span&gt;" style="ellipse;whiteSpace=wrap;html=1;" vertex="1" parent="1">
          <mxGeometry x="1265" y="700" width="190" height="70" as="geometry" />
        </mxCell>
        <mxCell id="vt_OYnWGVLv-kA8L_yOq-58" value="&lt;font style=&quot;font-size: 24px;&quot;&gt;Quản lí thành viên&lt;/font&gt;" style="ellipse;whiteSpace=wrap;html=1;" vertex="1" parent="1">
          <mxGeometry x="1250" y="840" width="210" height="70" as="geometry" />
        </mxCell>
        <mxCell id="vt_OYnWGVLv-kA8L_yOq-59" value="&lt;font style=&quot;font-size: 24px;&quot;&gt;Xem báo cáo doanh thu&lt;/font&gt;" style="ellipse;whiteSpace=wrap;html=1;" vertex="1" parent="1">
          <mxGeometry x="1230" y="920" width="140" height="110" as="geometry" />
        </mxCell>
        <mxCell id="vt_OYnWGVLv-kA8L_yOq-60" style="rounded=0;orthogonalLoop=1;jettySize=auto;html=1;exitX=0;exitY=0.5;exitDx=0;exitDy=0;entryX=0.916;entryY=0.746;entryDx=0;entryDy=0;entryPerimeter=0;dashed=1;dashPattern=1 4;strokeWidth=3;" edge="1" parent="1" source="vt_OYnWGVLv-kA8L_yOq-58" target="vt_OYnWGVLv-kA8L_yOq-46">
          <mxGeometry relative="1" as="geometry" />
        </mxCell>
        <mxCell id="vt_OYnWGVLv-kA8L_yOq-61" value="&lt;font style=&quot;font-size: 18px;&quot;&gt;&amp;lt;&amp;lt;Include&amp;gt;&amp;gt;&lt;/font&gt;" style="edgeLabel;html=1;align=center;verticalAlign=middle;resizable=0;points=[];" vertex="1" connectable="0" parent="vt_OYnWGVLv-kA8L_yOq-60">
          <mxGeometry x="0.0103" relative="1" as="geometry">
            <mxPoint as="offset" />
          </mxGeometry>
        </mxCell>
        <mxCell id="vt_OYnWGVLv-kA8L_yOq-62" style="rounded=0;orthogonalLoop=1;jettySize=auto;html=1;exitX=0.05;exitY=0.286;exitDx=0;exitDy=0;entryX=0.799;entryY=0.867;entryDx=0;entryDy=0;entryPerimeter=0;dashed=1;dashPattern=1 4;exitPerimeter=0;strokeWidth=4;" edge="1" parent="1" source="vt_OYnWGVLv-kA8L_yOq-59" target="vt_OYnWGVLv-kA8L_yOq-46">
          <mxGeometry relative="1" as="geometry" />
        </mxCell>
        <mxCell id="vt_OYnWGVLv-kA8L_yOq-63" value="&lt;font style=&quot;font-size: 18px;&quot;&gt;&amp;lt;&amp;lt;Include&amp;gt;&amp;gt;&lt;/font&gt;" style="edgeLabel;html=1;align=center;verticalAlign=middle;resizable=0;points=[];" vertex="1" connectable="0" parent="vt_OYnWGVLv-kA8L_yOq-62">
          <mxGeometry x="-0.0009" y="-3" relative="1" as="geometry">
            <mxPoint as="offset" />
          </mxGeometry>
        </mxCell>
        <mxCell id="vt_OYnWGVLv-kA8L_yOq-64" style="rounded=0;orthogonalLoop=1;jettySize=auto;html=1;exitX=0.5;exitY=0.5;exitDx=0;exitDy=0;exitPerimeter=0;entryX=1;entryY=0.5;entryDx=0;entryDy=0;endArrow=none;endFill=0;strokeWidth=4;" edge="1" parent="1" source="vt_OYnWGVLv-kA8L_yOq-65" target="vt_OYnWGVLv-kA8L_yOq-34">
          <mxGeometry relative="1" as="geometry" />
        </mxCell>
        <mxCell id="vt_OYnWGVLv-kA8L_yOq-65" value="&lt;font style=&quot;font-size: 36px;&quot;&gt;Hệ thống gửi email&lt;/font&gt;" style="shape=umlActor;verticalLabelPosition=bottom;verticalAlign=top;html=1;" vertex="1" parent="1">
          <mxGeometry x="1615" y="75" width="110" height="190" as="geometry" />
        </mxCell>
        <mxCell id="vt_OYnWGVLv-kA8L_yOq-66" style="rounded=0;orthogonalLoop=1;jettySize=auto;html=1;exitX=0.5;exitY=0.5;exitDx=0;exitDy=0;exitPerimeter=0;entryX=1;entryY=0.5;entryDx=0;entryDy=0;endArrow=none;endFill=0;strokeWidth=4;" edge="1" parent="1" source="vt_OYnWGVLv-kA8L_yOq-67" target="vt_OYnWGVLv-kA8L_yOq-35">
          <mxGeometry relative="1" as="geometry" />
        </mxCell>
        <mxCell id="vt_OYnWGVLv-kA8L_yOq-67" value="&lt;font style=&quot;font-size: 36px;&quot;&gt;Hệ thống gửi tin nhắn&lt;/font&gt;" style="shape=umlActor;verticalLabelPosition=bottom;verticalAlign=top;html=1;" vertex="1" parent="1">
          <mxGeometry x="1600" y="370" width="140" height="200" as="geometry" />
        </mxCell>
        <mxCell id="vt_OYnWGVLv-kA8L_yOq-68" style="rounded=0;orthogonalLoop=1;jettySize=auto;html=1;exitX=0.5;exitY=0.5;exitDx=0;exitDy=0;exitPerimeter=0;entryX=1;entryY=0.5;entryDx=0;entryDy=0;strokeWidth=4;endArrow=none;endFill=0;" edge="1" parent="1" source="vt_OYnWGVLv-kA8L_yOq-72" target="vt_OYnWGVLv-kA8L_yOq-54">
          <mxGeometry relative="1" as="geometry" />
        </mxCell>
        <mxCell id="vt_OYnWGVLv-kA8L_yOq-69" style="rounded=0;orthogonalLoop=1;jettySize=auto;html=1;exitX=0.5;exitY=0.5;exitDx=0;exitDy=0;exitPerimeter=0;entryX=1;entryY=0.5;entryDx=0;entryDy=0;endArrow=none;endFill=0;strokeWidth=4;" edge="1" parent="1" source="vt_OYnWGVLv-kA8L_yOq-72" target="vt_OYnWGVLv-kA8L_yOq-57">
          <mxGeometry relative="1" as="geometry" />
        </mxCell>
        <mxCell id="vt_OYnWGVLv-kA8L_yOq-70" style="rounded=0;orthogonalLoop=1;jettySize=auto;html=1;exitX=0.5;exitY=0.5;exitDx=0;exitDy=0;exitPerimeter=0;entryX=1;entryY=0.5;entryDx=0;entryDy=0;endArrow=none;endFill=0;strokeWidth=4;" edge="1" parent="1" source="vt_OYnWGVLv-kA8L_yOq-72" target="vt_OYnWGVLv-kA8L_yOq-58">
          <mxGeometry relative="1" as="geometry" />
        </mxCell>
        <mxCell id="vt_OYnWGVLv-kA8L_yOq-71" style="rounded=0;orthogonalLoop=1;jettySize=auto;html=1;exitX=0.5;exitY=0.5;exitDx=0;exitDy=0;exitPerimeter=0;entryX=1;entryY=0.5;entryDx=0;entryDy=0;endArrow=none;endFill=0;strokeWidth=4;" edge="1" parent="1" source="vt_OYnWGVLv-kA8L_yOq-72" target="vt_OYnWGVLv-kA8L_yOq-59">
          <mxGeometry relative="1" as="geometry" />
        </mxCell>
        <mxCell id="vt_OYnWGVLv-kA8L_yOq-72" value="&lt;font style=&quot;font-size: 36px;&quot;&gt;Quản trị viên&lt;/font&gt;" style="shape=umlActor;verticalLabelPosition=bottom;verticalAlign=top;html=1;" vertex="1" parent="1">
          <mxGeometry x="1580" y="690" width="180" height="210" as="geometry" />
        </mxCell>
        <mxCell id="vt_OYnWGVLv-kA8L_yOq-73" style="rounded=0;orthogonalLoop=1;jettySize=auto;html=1;exitX=0.5;exitY=0.5;exitDx=0;exitDy=0;exitPerimeter=0;entryX=1;entryY=0.5;entryDx=0;entryDy=0;strokeWidth=4;endArrow=none;endFill=0;" edge="1" parent="1" source="vt_OYnWGVLv-kA8L_yOq-74" target="vt_OYnWGVLv-kA8L_yOq-42">
          <mxGeometry relative="1" as="geometry" />
        </mxCell>
        <mxCell id="vt_OYnWGVLv-kA8L_yOq-74" value="&lt;font style=&quot;font-size: 36px;&quot;&gt;Hệ thống thanh toán&lt;/font&gt;" style="shape=umlActor;verticalLabelPosition=bottom;verticalAlign=top;html=1;" vertex="1" parent="1">
          <mxGeometry x="1570" y="1040" width="180" height="210" as="geometry" />
        </mxCell>
      </root>
    </mxGraphModel>
  </diagram>
</mxfile>
